<svg width="24" height="24" fill="none" xmlns="http://www.w3.org/2000/svg"><path d="M19 2c-2.8 0-5 2.2-5 5s2.2 5 5 5 5-2.2 5-5-2.2-5-5-5zm-.8 5.7H17c-.3 0-.6-.3-.6-.6s.3-.6.6-.6h4c.3 0 .6.3.6.6s-.3.6-.6.6h-2.8zM9.7 18.9h.1l-.1-.1v.1z" fill="#000"/><path d="M19.2 13.6v6.3c0 .2 0 .4-.4.4H2V6.6c0-.2 0-.4.4-.4h10.1c0-.7.3-1.3.5-1.8H1.4C.5 4.6 0 5.3 0 6.2v14c0 1 .8 1.8 1.8 1.8h17.5c1 0 1.8-.8 1.8-1.8v-6.9c-.6.2-1.2.3-1.8.3h-.1z" fill="#000"/><path d="M4.8 7.5c-.7 0-1.3.6-1.3 1.3v8.9c0 .4.2.7.5 1l2.6-3.5c.2-.3.6-.5.9-.5.4 0 .7.2.9.5l.9 1.3 2.3-3.5c.3-.4.8-.7 1.3-.7s1 .3 1.3.7l3.1 5v-4.5c-2.8-.6-4.9-3-5.1-6H4.6h.2zm1.9 5c-.9 0-1.6-.7-1.6-1.6 0-.9.7-1.6 1.6-1.6.9 0 1.6.7 1.6 1.6 0 .9-.7 1.6-1.6 1.6z" fill="#000"/><path d="M5.2 18.9h2.6l1-1.5-1.2-1.7-2.4 3.2zM10.4 17.8l-.7 1 .1.1H16.2l-3.1-5.1-2.7 4z" fill="#000"/></svg>